PathFileType	4	(X/Y/Z)	C:/Users/opensim2020/Desktop/walking_exp_matlab/subject01_walking09_straight_02.trc																																																																																																																															
DataRate	CameraRate	NumFrames	NumMarkers	Units	OrigDataRate	OrigDataStartFrame	OrigNumFrames																																																																																																																											
100	100	5	43	mm	100	1936	362																																																																																																																											
Frame#	Time	LFHD			RFHD			LBHD			RBHD			C7			T10			CLAV			STRN			RBAK			LSHO			LUPA			LELB			LFRM			LWRA			LWRB			LFIN			RSHO			RUPA			RELB			RFRM			RWRA			RWRB			RFIN			LASI			RASI			LPSI			RPSI			LTHI			LKNE			LTIB			LANK			LHEE			LTOE			RTHI			RKNE			RTIB			RANK			RHEE			RTOE			*39			*40			*41			*42		
		X1	Y1	Z1	X2	Y2	Z2	X3	Y3	Z3	X4	Y4	Z4	X5	Y5	Z5	X6	Y6	Z6	X7	Y7	Z7	X8	Y8	Z8	X9	Y9	Z9	X10	Y10	Z10	X11	Y11	Z11	X12	Y12	Z12	X13	Y13	Z13	X14	Y14	Z14	X15	Y15	Z15	X16	Y16	Z16	X17	Y17	Z17	X18	Y18	Z18	X19	Y19	Z19	X20	Y20	Z20	X21	Y21	Z21	X22	Y22	Z22	X23	Y23	Z23	X24	Y24	Z24	X25	Y25	Z25	X26	Y26	Z26	X27	Y27	Z27	X28	Y28	Z28	X29	Y29	Z29	X30	Y30	Z30	X31	Y31	Z31	X32	Y32	Z32	X33	Y33	Z33	X34	Y34	Z34	X35	Y35	Z35	X36	Y36	Z36	X37	Y37	Z37	X38	Y38	Z38	X39	Y39	Z39	X40	Y40	Z40	X41	Y41	Z41	X42	Y42	Z42	X43	Y43	Z43
																																																																																																																																		
46	0.45	-1040.66858	1677.91357	-1452.05066	-1014.79358	1683.76318	-1341.90332	-1152.89124	1628.17566	-1430.52039	-1129.65002	1633.35999	-1313.70166	-1179.38574	1432.30701	-1392.74866	-1193.81909	1136.21948	-1381.2887	-1032.1814	1374.75732	-1396.89575	-976.38611	1224.20532	-1405.66553	-1217.96155	1232.95605	-1313.75061	-1099.47827	1400.64624	-1555.93311	-1113.19421	1217.34082	-1642.04541	-1109.28491	1063.11646	-1646.79272	-1038.58948	971.86414	-1672.02588	-924.06378	892.79517	-1656.78052	-975.04388	867.62683	-1676.72717	-906.65057	820.27264	-1691.12903	-1093.11218	1397.98096	-1243.04309	-1138.62549	1192.578	-1142.69604	-1132.71094	1068.29004	-1144.44812	-1104.67969	951.29175	-1117.03442	-1026.72974	834.04553	-1141.349	-1069.43164	835.05713	-1099.53918	-1032.46863	756.54022	-1104.96838	-1019.90015	934.74561	-1501.56812	-995.51569	943.62738	-1286.70508	-1199.98572	944.52185	-1428.65686	-1182.0863	952.08966	-1284.19604	-1058.16724	598.80408	-1562.15417	-1078.75928	466.15677	-1556.7168	-1229.2041	355.92758	-1560.68896	-1386.3324	202.61086	-1508.16443	-1426.98181	217.51292	-1449.2843	-1335.33228	59.12918	-1510.49097	-1013.0061	611.00201	-1230.97949	-987.84894	455.72205	-1263.34204	-1023.92053	282.33282	-1258.1189	-1030.1709	78.33712	-1310.61023	-1080.8396	40.14532	-1357.3689	-889.03625	41.6706	-1322.44812	-1029.93213	1717.14624	-1362.34253	-1973.0741	1023.45465	3101.81714	-2012.54626	1022.01074	3140.75024	NaN	NaN	NaN
47	0.46	-1033.79041	1678.14417	-1451.14233	-1007.69366	1684.28552	-1341.14722	-1145.98767	1628.44885	-1429.74646	-1122.64844	1633.6095	-1312.61292	-1172.48254	1432.67505	-1391.71936	-1187.23389	1136.56152	-1379.75317	-1025.35181	1374.85974	-1395.88025	-969.69507	1224.18384	-1404.40479	-1211.31665	1233.49878	-1312.17371	-1092.57507	1400.85339	-1554.91321	-1107.63098	1217.32239	-1640.28784	-1105.08704	1063.07849	-1644.8562	-1035.47302	970.87616	-1670.03955	-921.81482	890.76233	-1655.54492	-973.22797	866.25201	-1675.41528	-905.46606	818.14154	-1689.97058	-1086.02148	1398.39575	-1242.04517	-1130.39819	1193.21252	-1140.8407	-1124.15015	1068.80432	-1142.40784	-1095.01123	951.99921	-1115.07996	-1015.93951	835.55786	-1140.00098	-1058.67273	836.21472	-1097.83545	-1020.64264	758.18304	-1103.50964	-1013.45331	934.91296	-1500.323	-989.40894	943.68518	-1285.14185	-1193.64661	943.72571	-1427.77502	-1176.27551	951.66754	-1283.36438	-1046.1687	599.30988	-1561.79773	-1064.04187	466.70477	-1556.91455	-1214.86096	357.92007	-1560.49634	-1374.6709	209.08022	-1507.04944	-1414.68176	224.80765	-1447.95532	-1327.80286	63.18582	-1511.06873	-1009.12799	611.12939	-1230.2345	-984.56952	455.19299	-1262.74927	-1021.97247	281.99298	-1257.99304	-1030.02087	78.2455	-1310.68579	-1080.80798	40.20294	-1357.42737	-888.88654	41.57003	-1322.43677	-1023.1214	1717.43152	-1361.5282	-1973.20923	1023.30334	3101.88989	-2012.44958	1021.97711	3140.66382	NaN	NaN	NaN
48	0.47	-1026.82458	1678.3075	-1450.30249	-1001.12842	1684.42456	-1340.24268	-1139.08008	1628.65991	-1428.99536	-1115.88098	1633.84338	-1311.97754	-1165.68213	1433.07324	-1390.72168	-1180.78369	1136.94556	-1378.32251	-1018.55505	1374.85583	-1394.81396	-963.1972	1224.23438	-1403.44519	-1204.74097	1234.11023	-1310.6665	-1085.68506	1401.09021	-1553.9342	-1102.2821	1217.40137	-1638.67273	-1101.14954	1063.17444	-1642.89551	-1032.62769	970.24286	-1668.32019	-919.85242	888.82202	-1654.3645	-971.57043	864.90509	-1674.0415	-904.49176	815.98358	-1688.84912	-1079.02124	1398.80798	-1240.96228	-1122.18555	1194.01111	-1139.11584	-1115.75171	1069.45044	-1140.24744	-1085.15576	952.81207	-1113.20593	-1005.27032	837.19891	-1138.72839	-1046.30444	837.23541	-1097.08472	-1008.63953	759.85944	-1102.10217	-1006.91394	934.9646	-1499.12524	-983.33386	943.75366	-1283.62622	-1187.50122	943.12372	-1427.09302	-1170.64673	951.35071	-1282.73279	-1034.2804	600.28046	-1561.78345	-1049.40332	467.45166	-1556.8772	-1200.29834	359.62378	-1560.01147	-1362.24561	215.23732	-1505.88367	-1401.86426	231.17485	-1446.31311	-1318.85083	67.33517	-1512.01111	-1005.24908	610.82239	-1229.40979	-981.24884	454.93661	-1262.11487	-1019.61279	281.91168	-1258.42456	-1029.92798	78.26613	-1310.72705	-1080.83875	40.05276	-1357.52637	-888.82068	41.49142	-1322.4469	-1016.25488	1717.68665	-1360.71948	-1973.19141	1023.26111	3101.90698	-2012.56531	1022.09393	3140.7395	NaN	NaN	NaN
49	0.48	-1019.87781	1678.47034	-1449.63733	-994.21008	1684.72961	-1339.53503	-1132.13721	1628.88623	-1428.27783	-1109.00269	1634.2478	-1311.22424	-1158.91602	1433.40381	-1389.73816	-1174.45093	1137.3313	-1377.0127	-1011.74622	1375.05359	-1394.03174	-956.72192	1224.18115	-1402.30798	-1198.24658	1234.65125	-1309.29944	-1078.82446	1401.38647	-1552.9895	-1096.97766	1217.48145	-1637.16504	-1097.40466	1063.38599	-1640.96155	-1030.02258	969.71027	-1666.64136	-918.10889	887.00531	-1653.11951	-970.20825	863.58722	-1672.2915	-903.8017	813.96503	-1687.646	-1072.17688	1399.33765	-1240.22522	-1114.12463	1194.85693	-1137.39478	-1107.40881	1070.21289	-1137.94373	-1075.48718	953.82471	-1111.32922	-994.55725	839.06708	-1137.68494	-1035.36572	838.69403	-1095.48901	-996.61432	761.88202	-1100.70532	-1000.57617	935.21484	-1498.18884	-977.52606	943.91772	-1282.14612	-1181.14417	942.66614	-1426.58423	-1165.04053	951.20142	-1282.28625	-1022.56854	601.3316	-1561.6156	-1034.75183	468.44409	-1556.82825	-1185.67883	361.39374	-1559.54016	-1349.71851	220.31012	-1504.2406	-1388.90344	236.21376	-1444.37671	-1308.40283	71.95905	-1513.25696	-1001.01593	610.55872	-1228.74963	-977.86145	454.38272	-1261.68555	-1017.42725	281.87137	-1258.50134	-1029.80139	78.17493	-1310.77161	-1080.8158	40.31399	-1357.52844	-888.80585	41.50216	-1322.49634	-1009.29053	1717.93176	-1360.04016	-1973.02405	1023.45441	3101.86035	-2012.41284	1021.86115	3140.63599	NaN	NaN	NaN
50	0.49	-1012.8728	1678.5542	-1448.96338	-986.89935	1684.9657	-1338.88696	-1125.20959	1629.1095	-1427.70105	-1102.12317	1634.64124	-1310.56067	-1152.24304	1433.79651	-1388.82178	-1168.25024	1137.73352	-1375.84961	-1005.08264	1375.06714	-1392.9668	-950.43036	1224.07971	-1401.25806	-1191.81726	1235.25867	-1308.09851	-1072.0426	1401.62012	-1552.03711	-1091.89783	1217.70581	-1635.87341	-1093.9104	1063.65979	-1639.0957	-1027.64136	969.18024	-1664.94275	-916.57135	885.26025	-1651.90295	-969.07983	862.46136	-1670.94165	-903.37872	812.0683	-1686.50488	-1065.51025	1399.94971	-1239.44495	-1106.23206	1195.76489	-1135.79614	-1099.2699	1071.02161	-1136.08264	-1065.8927	954.98029	-1109.68811	-983.93945	841.13129	-1136.71375	-1024.4541	840.38995	-1093.99792	-984.62177	764.18719	-1099.4762	-993.35706	935.58105	-1496.84741	-971.87683	944.18213	-1280.64038	-1175.06104	942.58545	-1426.17542	-1159.48401	951.15723	-1281.92761	-1010.94507	602.35712	-1561.23181	-1020.22906	469.56757	-1556.70288	-1171.04956	363.09244	-1558.80603	-1336.82117	224.92285	-1502.55334	-1375.95276	239.98001	-1442.13147	-1295.87439	76.458	-1514.61145	-996.56085	610.10303	-1228.05176	-974.5	453.89969	-1261.19934	-1015.03979	281.76144	-1258.58582	-1029.68018	78.10134	-1310.74646	-1080.77759	40.35131	-1357.56201	-888.74945	41.47345	-1322.54126	-1002.33466	1718.09875	-1359.41492	-1973.07837	1023.58435	3101.98657	-2012.46521	1021.98468	3140.79541	NaN	NaN	NaN
